PathFileType	4	(X/Y/Z)	E:\Qualisys_Data\Carbon_Farble_Plate\Data\Amateur_Runner\S2\T3\S2T3V21_c3d.trc
DataRate	CameraRate	NumFrames	NumMarkers	Units	OrigDataRate	OrigDataStartFrame	OrigNumFrames
200.000000	200.000000	4	39	mm	200.000000	263	301
Frame#	Time	LSHO			RSHO			LICST			RICST			LASIS			LHEEL			RASIS			LTROC			RTROC			SACR			LTH1			LSK4			LTH2			LTH3			RHM5			LSK2			LTH4			RTH1			LTOE			RTH2			RTH3			RTH4			LLEP			RLEP			LSK1			LSK3			RSK1			LHM5			RSK2			LFT1			RSK3			RSK4			LLME			RLME			RTOE			RHEEL			RFT1			RFT2			LFT2			
		X1	Y1	Z1	X2	Y2	Z2	X3	Y3	Z3	X4	Y4	Z4	X5	Y5	Z5	X6	Y6	Z6	X7	Y7	Z7	X8	Y8	Z8	X9	Y9	Z9	X10	Y10	Z10	X11	Y11	Z11	X12	Y12	Z12	X13	Y13	Z13	X14	Y14	Z14	X15	Y15	Z15	X16	Y16	Z16	X17	Y17	Z17	X18	Y18	Z18	X19	Y19	Z19	X20	Y20	Z20	X21	Y21	Z21	X22	Y22	Z22	X23	Y23	Z23	X24	Y24	Z24	X25	Y25	Z25	X26	Y26	Z26	X27	Y27	Z27	X28	Y28	Z28	X29	Y29	Z29	X30	Y30	Z30	X31	Y31	Z31	X32	Y32	Z32	X33	Y33	Z33	X34	Y34	Z34	X35	Y35	Z35	X36	Y36	Z36	X37	Y37	Z37	X38	Y38	Z38	X39	Y39	Z39	

264	1.315	2417.613525390625	1452.024169921875	-452.7341613769531	2368.666015625	1450.927612304688	-145.0042419433594	2364.22119140625	985.8333129882812	-423.091796875	2356.89697265625	999.2107543945312	-123.0669326782227	2414.98486328125	934.5662231445312	-405.4155883789062	1898.481323242188	219.9843444824219	-295.0097045898438	2417.216064453125	953.0892944335938	-147.7400207519531	2270.745361328125	876.9597778320312	-416.6126708984375	2294.082275390625	897.4011840820312	-101.4206085205078	2267.9306640625	1031.332153320312	-283.7504577636719	2326.278076171875	619.4146728515625	-407.61328125	2039.327880859375	348.3023986816406	-383.0111694335938	2248.101318359375	644.3568115234375	-417.871826171875	2292.9921875	525.3543701171875	-382.4290161132812	2301.718017578125	191.9728088378906	-116.8861770629883	2101.85107421875	423.8379821777344	-400.8695983886719	2212.63720703125	553.2969970703125	-390.3661193847656	2540.0458984375	704.811279296875	-97.53333282470705	2059.5341796875	48.35733795166016	-290.8765563964844	2471.582763671875	668.2449951171875	-89.57781982421875	2585.896240234375	614.9600219726562	-113.7098922729492	2512.547119140625	579.3369750976562	-107.8016815185547	2227.928466796875	497.1566162109375	-387.9221801757812	2545.86669921875	563.9795532226562	-106.8143005371094	2163.430908203125	374.1697082519531	-389.4971008300781	2099.07421875	297.9547729492188	-376.3267517089844	2497.00830078125	458.0694580078125	-111.0217666625977	2004.079223632812	66.5096435546875	-354.7716064453125	2446.42578125	521.1219482421875	-109.0511169433594	1885.672119140625	195.7671356201172	-263.3253479003906	2417.73876953125	394.9909362792969	-124.271240234375	2370.158447265625	458.8572692871094	-123.3198699951172	1959.3330078125	183.1902923583984	-346.6048583984375	2251.244873046875	309.8287048339844	-157.3232574462891	2363.5126953125	153.1824493408203	-166.513671875	2201.411376953125	336.361572265625	-223.3829498291016	2195.591064453125	307.8373107910156	-251.0107421875	2179.302001953125	320.6698303222656	-203.0028533935547	1876.91357421875	192.7510528564453	-315.23876953125
265	1.32	2437.96533203125	1456.541015625	-450.8440551757812	2386.637939453125	1454.873779296875	-145.4597015380859	2387.107177734375	989.3162841796876	-422.37158203125	2378.3837890625	1003.722412109375	-122.8974151611328	2437.251708984375	937.6130981445312	-404.1875305175781	1914.832275390625	231.0626983642578	-299.0162353515625	2438.27685546875	957.0369262695312	-147.699951171875	2291.67333984375	881.5533447265625	-417.1297607421875	2315.994384765625	902.2735595703124	-101.0291976928711	2290.130126953125	1034.832275390625	-283.9964599609375	2343.339111328125	623.9552001953125	-407.9375	2051.67822265625	354.9906311035156	-384.9779357910156	2264.361328125	649.7374267578125	-418.7236633300781	2306.3818359375	530.1810302734375	-382.6920776367188	2341.884033203125	184.0384368896484	-115.8544387817383	2114.1533203125	430.8752136230469	-402.6175842285156	2226.830078125	560.6170654296875	-390.7073669433594	2562.587158203125	708.942626953125	-97.58394622802734	2064.492919921875	47.35884857177734	-292.3256225585938	2493.802978515625	672.8643188476562	-89.49658203125	2607.7080078125	619.2653198242188	-114.2271499633789	2534.2412109375	584.3779296875	-107.3054962158203	2241.08837890625	503.435302734375	-388.7342224121094	2567.583740234375	568.163818359375	-106.464729309082	2176.526123046875	380.3062133789062	-392.1014099121094	2111.834716796875	304.849365234375	-379.1999206542969	2522.17138671875	458.7069702148438	-110.2082901000977	2009.540161132812	68.1134262084961	-355.4795532226562	2468.40869140625	519.0593872070312	-108.0713195800781	1900.48779296875	208.3709259033203	-267.1593322753906	2446.08837890625	391.5059814453125	-123.8022384643555	2395.748046875	453.0014343261719	-123.3111267089844	1972.360473632812	189.5208129882812	-349.0842895507812	2284.8671875	298.3473510742188	-157.0416564941406	2405.922119140625	148.0785675048828	-165.0190734863281	2233.182373046875	321.5091552734375	-223.3997192382812	2229.1181640625	291.93408203125	-250.3477630615234	2211.741455078125	304.8459777832031	-203.0413665771484	1892.197265625	205.3044891357422	-319.0221252441406
266	1.325	2458.550048828125	1460.741943359375	-449.585205078125	2404.82275390625	1458.642211914062	-145.4577178955078	2409.98876953125	992.8048706054688	-421.8532409667969	2399.74853515625	1008.013000488281	-123.0248107910156	2457.070556640625	940.0636596679688	-402.5791625976562	1932.544677734375	241.4468231201172	-303.076416015625	2459.3623046875	960.615234375	-147.3579254150391	2312.743896484375	886.7882690429688	-417.7153015136719	2337.95458984375	906.0709838867188	-100.5655975341797	2311.1298828125	1039.101928710938	-284.4674377441406	2358.669921875	627.7621459960938	-408.2649230957031	2064.895751953125	361.6429748535156	-387.06884765625	2280.319091796875	655.8380737304688	-419.2574157714844	2319.608642578125	535.0927734375	-383.1961669921875	2382.35302734375	176.3861694335938	-114.808349609375	2127.455810546875	438.1813049316406	-403.7638244628906	2240.917724609375	567.193115234375	-391.0870666503906	2584.921630859375	713.1257934570312	-98.08428192138672	2069.341796875	46.37493133544922	-293.36474609375	2516.001708984375	677.449951171875	-89.06796264648438	2629.10009765625	622.9058837890625	-113.9531402587891	2553.775634765625	588.6873779296875	-106.7399215698242	2254.451416015625	509.8298645019531	-389.2942199707031	2588.411865234375	571.7770385742188	-106.5446090698242	2188.654052734375	388.9666442871094	-392.3876953125	2125.050048828125	311.2371826171875	-381.4140625	2546.423095703125	459.486572265625	-109.0415954589844	2016.150024414062	71.0750503540039	-356.9771423339844	2490.857177734375	516.8399047851562	-107.2427673339844	1916.346557617188	220.7052154541016	-270.6878051757812	2474.91796875	387.7090759277344	-123.4108810424805	2421.23291015625	446.8965759277344	-122.7212371826172	1985.612060546875	195.7883605957031	-352.2101440429688	2318.177001953125	286.4902038574219	-156.5700225830078	2450.315185546875	145.3376770019531	-161.7686157226562	2265.834228515625	306.8001098632812	-222.8572692871094	2263.73828125	276.5524597167969	-249.8870391845703	2244.971923828125	288.7964782714844	-202.5481567382812	1907.87158203125	217.2430419921875	-323.09423828125
267	1.33	2478.785888671875	1464.749755859375	-448.2248840332031	2423.671142578125	1462.1064453125	-145.6198577880859	2432.360595703125	996.3213500976562	-420.9805297851562	2421.353515625	1011.724243164062	-122.8606948852539	2482.025390625	943.5527954101562	-403.3897399902344	1950.8984375	252.0217132568359	-307.4179077148438	2480.47607421875	963.8969116210938	-147.5304260253906	2334.3017578125	891.542724609375	-417.8986206054688	2359.873291015625	910.3944702148438	-100.1240615844727	2333.2060546875	1042.802734375	-284.3429565429688	2374.68310546875	632.5718383789062	-409.2375183105469	2078.39599609375	368.1323852539062	-389.0924072265625	2295.399169921875	662.7588500976562	-420.2982788085938	2333.164794921875	540.216796875	-384.4519348144531	2422.53759765625	169.0229034423828	-113.3780746459961	2141.100830078125	444.8638305664062	-404.4701843261719	2255.34716796875	574.1058349609375	-391.4230041503906	2606.553955078125	716.697265625	-98.18686676025392	2074.2939453125	45.2522087097168	-294.6272888183594	2537.471435546875	681.3475341796875	-88.6744384765625	2649.908935546875	625.7442626953125	-113.907096862793	2576.19775390625	593.2454223632812	-107.1379165649414	2267.7490234375	516.4452514648438	-390.4823608398438	2608.2294921875	574.2291259765625	-106.5722274780273	2202.331298828125	395.7088928222656	-394.4349365234375	2138.76611328125	317.9592590332031	-383.8243713378906	2572.02490234375	459.35595703125	-109.1751403808594	2022.801513671875	73.37348175048828	-358.3766784667969	2512.789794921875	513.9358520507812	-106.2829742431641	1932.767944335938	233.4613342285156	-274.9419555664062	2503.453125	384.6239929199219	-122.7086715698242	2447.01171875	440.4041137695312	-122.2766799926758	1999.1591796875	201.6788482666016	-355.7405700683594	2352.21728515625	274.9651184082031	-156.5047149658203	2492.802490234375	142.025634765625	-159.9309387207031	2298.87890625	292.1070556640625	-223.1760559082031	2298.844970703125	261.6532287597656	-249.4049682617188	2279.77783203125	272.201171875	-203.4124450683594	1924.482299804688	229.1406097412109	-327.5807189941406
